<svg xmlns="http://www.w3.org/2000/svg" xmlns:xlink="http://www.w3.org/1999/xlink" viewBox="0 0 100 125" version="1.1" x="0px" y="0px"><title>share</title><desc>Created with Sketch.</desc><g stroke="none" stroke-width="1" fill="none" fill-rule="evenodd"><path d="M87.753,59.648 C87.628,59.648 87.502,59.634 87.375,59.606 C86.586,59.433 85.798,59.289 85.039,59.149 C82.42,58.667 79.824,57.551 79.255,54.635 C78.653,51.544 80.88,50.355 82.427,48.25 C84.188,45.854 84.207,42.295 82.899,39.706 C81.941,37.806 80.182,36.503 78.074,36.133 C75.872,35.744 73.663,36.412 72.016,37.962 C70.38,39.501 69.533,41.567 69.632,43.778 C69.825,48.103 74.864,49.836 74.65,53.94 C74.571,55.433 73.015,57.644 71.684,58.29 C70.603,58.815 68.902,58.302 68.813,56.931 C68.7,55.182 71.472,55.236 71.095,53.439 C70.947,52.737 70.42,52.187 69.941,51.653 C67.971,49.458 66.269,46.958 66.135,43.933 C65.991,40.688 67.228,37.663 69.617,35.413 C72.075,33.1 75.377,32.105 78.681,32.686 C81.886,33.25 84.563,35.233 86.024,38.129 C88.526,43.085 87.317,49.257 83.212,52.486 C81.762,53.625 83.29,55.182 84.598,55.517 C86.075,55.896 90.018,55.736 89.46,58.273 C89.28,59.09 88.557,59.648 87.753,59.648 M71.876,72.348 C71.871,73.311 71.088,74.088 70.116,74.088 C69.15,74.083 68.371,73.295 68.376,72.329 C68.385,70.747 68.371,68.826 68.335,68.481 C67.779,64.847 64.831,64.038 60.398,63.222 L60.133,63.173 C59.888,63.128 59.676,63.068 59.465,63.006 L58.375,62.646 C58.333,62.631 58.292,62.615 58.251,62.598 L58.141,62.552 C57.902,62.452 57.666,62.347 57.464,62.231 C56.117,61.459 55.308,60.048 55.299,58.458 C55.292,57.056 55.908,55.765 56.99,54.915 C59.134,53.229 59.904,51.13 59.278,48.675 C58.455,45.45 55.614,44.424 53.446,44.524 C51.294,44.623 48.596,45.903 48.074,49.183 C47.806,50.87 48.359,52.696 49.52,53.95 C49.698,54.143 49.889,54.325 50.078,54.507 C50.532,54.942 51.046,55.436 51.469,56.077 C52.315,57.363 52.489,58.756 51.958,60.002 C51.166,61.861 49.065,62.859 47.364,63.173 C47.364,63.173 47.09,63.224 47.088,63.224 C40.435,64.447 39.052,67.686 39.052,74.018 C39.052,74.984 38.269,75.768 37.302,75.768 C36.335,75.768 35.552,74.985 35.552,74.019 C35.551,70.808 35.291,66.995 37.274,64.135 C39.327,61.174 43.124,60.394 46.455,59.782 L46.729,59.732 C47.761,59.541 48.576,59.011 48.738,58.629 C48.796,58.495 48.732,58.284 48.546,58.003 C48.34,57.69 48.007,57.37 47.654,57.031 C47.414,56.801 47.175,56.57 46.95,56.326 C45.05,54.273 44.177,51.396 44.617,48.633 C45.415,43.619 49.546,41.2 53.285,41.028 C57.082,40.859 61.413,42.885 62.669,47.81 C63.641,51.62 62.392,55.12 59.152,57.667 C58.843,57.91 58.798,58.255 58.799,58.44 C58.8,58.635 58.855,58.993 59.205,59.195 C59.292,59.244 59.396,59.282 59.496,59.325 L59.562,59.352 L60.458,59.649 C60.558,59.679 60.656,59.711 60.77,59.732 L61.03,59.78 C64.929,60.497 70.82,61.581 71.799,67.982 C71.88,68.51 71.885,70.647 71.876,72.348 M33.671,48.959 C33.519,46.858 34.408,44.833 36.052,43.541 C40.82,39.791 41.016,33.444 38.743,29.112 C36.868,25.537 32.776,22.361 26.925,24.173 C23.976,25.085 21.45,27.443 20.17,30.479 C18.475,34.501 19.583,39.036 22.463,42.163 C25.421,45.376 28.38,49.865 23.765,53.153 C20.848,55.231 16.916,55.658 13.515,56.456 C12.821,56.619 12.066,56.776 11.418,56.479 C10.652,56.128 10.272,55.115 10.616,54.346 C11.03,53.423 12.157,53.104 13.147,52.891 C15.049,52.483 16.951,52.074 18.854,51.666 C20.35,51.345 22.093,50.81 22.562,49.354 C22.824,48.54 22.582,47.629 22.114,46.914 C20.522,44.479 18.185,43.114 17.008,40.245 C15.518,36.612 15.495,32.558 16.945,29.12 C18.622,25.143 21.967,22.044 25.891,20.829 C32.405,18.815 38.665,21.429 41.843,27.486 C44.787,33.099 44.486,41.361 38.215,46.292 C37.487,46.864 37.094,47.766 37.162,48.704 C37.228,49.597 37.694,50.355 38.443,50.785 C39.281,51.266 39.571,52.335 39.09,53.173 C38.609,54.011 37.543,54.301 36.701,53.821 C34.953,52.818 33.82,51 33.671,48.959 M50,5 C25.147,5 5,25.147 5,50 C5,74.852 25.147,95 50,95 C74.852,95 95,74.852 95,50 C95,25.147 74.852,5 50,5" fill="#000000"/></g><text x="0" y="115" fill="#000000" font-size="5px" font-weight="bold" font-family="'Helvetica Neue', Helvetica, Arial-Unicode, Arial, Sans-serif">Created by Icon Island</text><text x="0" y="120" fill="#000000" font-size="5px" font-weight="bold" font-family="'Helvetica Neue', Helvetica, Arial-Unicode, Arial, Sans-serif">from the Noun Project</text></svg>